HIERARCHY
ROOT hip
{
  OFFSET 0 0 0
  CHANNELS 6 Xposition Yposition Zposition Zrotation Yrotation Xrotation
  JOINT abdomen
  {
    OFFSET 0 20.6881 -0.73152
    CHANNELS 3 Zrotation Xrotation Yrotation
    JOINT chest
    {
      OFFSET 0 11.7043 -0.48768
      CHANNELS 3 Zrotation Xrotation Yrotation
      JOINT neck
      {
        OFFSET 0 22.1894 -2.19456
        CHANNELS 3 Zrotation Xrotation Yrotation
        JOINT head
        {
          OFFSET -0.24384 7.07133 1.2192
          CHANNELS 3 Zrotation Xrotation Yrotation
          JOINT leftEye
          {
            OFFSET 4.14528 8.04674 8.04672
            CHANNELS 3 Zrotation Xrotation Yrotation
            End Site
            {
              OFFSET 1 0 0
            }
          }
          JOINT rightEye
          {
            OFFSET -3.6576 8.04674 8.04672
            CHANNELS 3 Zrotation Xrotation Yrotation
            End Site
            {
              OFFSET 1 0 0
            }
          }
        }
      }
      JOINT rCollar
      {
        OFFSET -2.68224 19.2634 -4.8768
        CHANNELS 3 Zrotation Xrotation Yrotation
        JOINT rShldr
        {
          OFFSET -8.77824 -1.95073 1.46304
          CHANNELS 3 Zrotation Xrotation Yrotation
          JOINT rForeArm
          {
            OFFSET -28.1742 -1.7115 0.48768
            CHANNELS 3 Zrotation Xrotation Yrotation
            JOINT rHand
            {
              OFFSET -22.5879 0.773209 7.07136
              CHANNELS 3 Zrotation Xrotation Yrotation
              JOINT rThumb1
              {
                OFFSET -1.2192 -0.487915 3.41376
                CHANNELS 3 Zrotation Xrotation Yrotation
                JOINT rThumb2
                {
                  OFFSET -3.37035 -0.52449 3.41376
                  CHANNELS 3 Zrotation Xrotation Yrotation
                  End Site
                  {
                    OFFSET -1.78271 -1.18214 1.43049
                  }
                }
              }
              JOINT rIndex1
              {
                OFFSET -7.75947 0.938293 5.60832
                CHANNELS 3 Zrotation Xrotation Yrotation
                JOINT rIndex2
                {
                  OFFSET -2.54057 -0.884171 1.56538
                  CHANNELS 3 Zrotation Xrotation Yrotation
                  End Site
                  {
                    OFFSET -1.62519 -0.234802 1.16502
                  }
                }
              }
              JOINT rMid1
              {
                OFFSET -8.24714 1.18213 3.41376
                CHANNELS 3 Zrotation Xrotation Yrotation
                JOINT rMid2
                {
                  OFFSET -3.10165 -0.590103 1.0647
                  CHANNELS 3 Zrotation Xrotation Yrotation
                  End Site
                  {
                    OFFSET -2.48547 -0.328903 0.83742
                  }
                }
              }
              JOINT rRing1
              {
                OFFSET -8.82822 0.546677 1.51678
                CHANNELS 3 Zrotation Xrotation Yrotation
                JOINT rRing2
                {
                  OFFSET -2.60934 -0.819778 -0.0198488
                  CHANNELS 3 Zrotation Xrotation Yrotation
                  End Site
                  {
                    OFFSET -2.33842 -0.294052 0.168128
                  }
                }
              }
              JOINT rPinky1
              {
                OFFSET -8.27202 -0.0477905 -0.4584
                CHANNELS 3 Zrotation Xrotation Yrotation
                JOINT rPinky2
                {
                  OFFSET -1.82734 -0.647385 -0.700984
                  CHANNELS 3 Zrotation Xrotation Yrotation
                  End Site
                  {
                    OFFSET -1.69225 -0.51767 -0.607171
                  }
                }
              }
            }
          }
        }
      }
      JOINT lCollar
      {
        OFFSET 2.68224 19.2634 -4.8768
        CHANNELS 3 Zrotation Xrotation Yrotation
        JOINT lShldr
        {
          OFFSET 8.77824 -1.95073 1.46304
          CHANNELS 3 Zrotation Xrotation Yrotation
          JOINT lForeArm
          {
            OFFSET 28.1742 -1.7115 0.48768
            CHANNELS 3 Zrotation Xrotation Yrotation
            JOINT lHand
            {
              OFFSET 22.5879 0.773209 7.07136
              CHANNELS 3 Zrotation Xrotation Yrotation
              JOINT lThumb1
              {
                OFFSET 1.2192 -0.487915 3.41376
                CHANNELS 3 Zrotation Xrotation Yrotation
                JOINT lThumb2
                {
                  OFFSET 3.37035 -0.52449 3.41376
                  CHANNELS 3 Zrotation Xrotation Yrotation
                  End Site
                  {
                    OFFSET 1.78271 -1.18214 1.43049
                  }
                }
              }
              JOINT lIndex1
              {
                OFFSET 7.75947 0.938293 5.60832
                CHANNELS 3 Zrotation Xrotation Yrotation
                JOINT lIndex2
                {
                  OFFSET 2.54057 -0.884171 1.56538
                  CHANNELS 3 Zrotation Xrotation Yrotation
                  End Site
                  {
                    OFFSET 1.62519 -0.234802 1.16502
                  }
                }
              }
              JOINT lMid1
              {
                OFFSET 8.24714 1.18213 3.41376
                CHANNELS 3 Zrotation Xrotation Yrotation
                JOINT lMid2
                {
                  OFFSET 3.10165 -0.590103 1.0647
                  CHANNELS 3 Zrotation Xrotation Yrotation
                  End Site
                  {
                    OFFSET 2.48547 -0.328903 0.83742
                  }
                }
              }
              JOINT lRing1
              {
                OFFSET 8.82822 0.546677 1.51678
                CHANNELS 3 Zrotation Xrotation Yrotation
                JOINT lRing2
                {
                  OFFSET 2.60934 -0.819778 -0.0198488
                  CHANNELS 3 Zrotation Xrotation Yrotation
                  End Site
                  {
                    OFFSET 2.33842 -0.294052 0.168128
                  }
                }
              }
              JOINT lPinky1
              {
                OFFSET 8.27202 -0.0477905 -0.4584
                CHANNELS 3 Zrotation Xrotation Yrotation
                JOINT lPinky2
                {
                  OFFSET 1.82734 -0.647385 -0.700984
                  CHANNELS 3 Zrotation Xrotation Yrotation
                  End Site
                  {
                    OFFSET 1.69225 -0.51767 -0.607171
                  }
                }
              }
            }
          }
        }
      }
    }
  }
  JOINT rButtock
  {
    OFFSET -8.77824 4.35084 1.2192
    CHANNELS 3 Zrotation Xrotation Yrotation
    JOINT rThigh
    {
      OFFSET 0 -1.70687 -2.19456
      CHANNELS 3 Zrotation Xrotation Yrotation
      JOINT rShin
      {
        OFFSET 0 -36.8199 0.73152
        CHANNELS 3 Zrotation Xrotation Yrotation
        JOINT rFoot
        {
          OFFSET 0.73152 -45.1104 -5.12064
          CHANNELS 3 Zrotation Xrotation Yrotation
          End Site
          {
            OFFSET -1.1221 -3.69964 12.103
          }
        }
      }
    }
  }
  JOINT lButtock
  {
    OFFSET 8.77824 4.35084 1.2192
    CHANNELS 3 Zrotation Xrotation Yrotation
    JOINT lThigh
    {
      OFFSET 0 -1.70687 -2.19456
      CHANNELS 3 Zrotation Xrotation Yrotation
      JOINT lShin
      {
        OFFSET 0 -36.8199 0.73152
        CHANNELS 3 Zrotation Xrotation Yrotation
        JOINT lFoot
        {
          OFFSET -0.73152 -45.1104 -5.12064
          CHANNELS 3 Zrotation Xrotation Yrotation
          End Site
          {
            OFFSET 1.1221 -3.69964 12.103
          }
        }
      }
    }
  }
}
MOTION
Frames:	7
Frame Time:	0.00833333
84.8535 82.5412 113.293 178.026 -4.4904 -155.767 -8.83532 -23.471 -1.17758 4.2215 15.1554 -0.536119 -2.49507 14.1129 2.31398 9.67417 0.459153 0.29623 -0.0 0.0 0.0 -0.0 0.0 0.0 7.46001e-14 3.53787e-13 4.15518e-14 80.4022 12.585 -4.6777 -18.3822 -11.1038 34.8829 -0.046699 -6.15413 -0.868284 -2.06527e-09 2.08977e-09 -1.05877e-09 -3.56678e-09 3.60655e-09 -1.84211e-09 -2.06527e-09 2.08977e-09 -1.05878e-09 7.73091 5.47488 0.417314 -2.06527e-09 2.08977e-09 -1.05877e-09 2.90554 0.965183 0.102902 -2.06526e-09 2.08977e-09 -1.05877e-09 10.2786 0.731801 0.0259123 -2.06528e-09 2.08977e-09 -1.05876e-09 2.22167 -0.733487 -0.20892 7.45306e-14 3.53787e-13 4.1367e-14 -73.6412 16.6286 2.49868 10.8992 -4.70643 -19.4984 0.0452088 6.05678 -0.854442 -2.92475e-09 7.86175e-10 1.45708e-09 -5.04607e-09 1.35529e-09 2.53398e-09 -2.92475e-09 7.86173e-10 1.45709e-09 -7.73091 5.47488 -0.417314 -2.92474e-09 7.86171e-10 1.45708e-09 -2.90554 0.965183 -0.102902 -2.92475e-09 7.86171e-10 1.45709e-09 -10.2786 0.731801 -0.0259123 -2.92474e-09 7.86172e-10 1.45708e-09 -2.22167 -0.733487 0.20892 -2.03217e-16 0.0 -3.88251e-19 -3.35105 -20.8381 13.8078 0.01494 12.4968 0.449668 -6.24846 -19.5727 -18.58 2.03217e-16 0.0 3.88251e-19 5.20301 -38.4947 -11.8418 0.043975 13.2395 -0.41761 -0.41397 2.07786 1.74304
84.5055 82.5299 113.182 177.861 -4.2388 -155.47 -9.38166 -23.6586 -1.24193 4.28455 15.1402 -0.539899 -2.50105 14.1264 2.3579 9.77234 0.335842 0.408382 -0.0 0.0 0.0 -0.0 0.0 0.0 3.84158e-14 1.99971e-13 1.18991e-14 80.5047 12.6366 -4.79501 -18.4571 -11.187 35.0532 -0.04601 -6.10602 -0.861449 -7.0687e-10 6.19634e-10 -6.59121e-10 -1.21857e-09 1.0657e-09 -1.14513e-09 -7.06864e-10 6.19633e-10 -6.59132e-10 7.73091 5.47488 0.417314 -7.06872e-10 6.19632e-10 -6.59127e-10 2.90554 0.965183 0.102902 -7.06861e-10 6.19632e-10 -6.59123e-10 10.2786 0.731801 0.0259123 -7.06874e-10 6.19634e-10 -6.59117e-10 2.22167 -0.733487 -0.20892 3.82181e-14 1.99982e-13 1.16506e-14 -73.406 16.8402 2.27771 11.061 -4.81145 -19.8074 0.0431762 5.91513 -0.834319 -1.36367e-09 5.67191e-10 5.78833e-10 -2.35373e-09 9.78805e-10 1.00683e-09 -1.36367e-09 5.6719e-10 5.7884e-10 -7.73091 5.47488 -0.417314 -1.36366e-09 5.6719e-10 5.78833e-10 -2.90554 0.965183 -0.102902 -1.36367e-09 5.6719e-10 5.78836e-10 -10.2786 0.731801 -0.0259123 -1.36366e-09 5.67191e-10 5.78829e-10 -2.22167 -0.733487 0.20892 -2.03217e-16 0.0 -3.88251e-19 -3.88643 -21.3952 13.9174 0.0159129 12.9678 0.464812 -6.30516 -19.6018 -18.6196 2.03217e-16 0.0 3.88251e-19 4.63021 -38.8736 -11.6827 0.0463981 13.5211 -0.413982 -0.412911 1.82679 1.63955
84.1124 82.4927 113.26 177.589 -3.5165 -154.575 -9.86779 -23.8023 -1.25795 4.32218 15.1237 -0.530032 -2.52551 14.1429 2.39729 9.89572 0.198933 0.5166 -0.0 0.0 0.0 -0.0 0.0 0.0 -3.01111e-15 2.64761e-14 -2.52313e-14 80.6019 12.7069 -4.92857 -18.5304 -11.2687 35.2206 -0.0457392 -6.08739 -0.858801 7.48483e-10 -9.73306e-10 -2.16101e-10 1.29701e-09 -1.68716e-09 -3.72553e-10 7.48487e-10 -9.73307e-10 -2.16111e-10 7.73091 5.47488 0.417314 7.48481e-10 -9.73308e-10 -2.1611e-10 2.90554 0.965183 0.102902 7.48491e-10 -9.73309e-10 -2.16104e-10 10.2786 0.731801 0.0259123 7.48479e-10 -9.73306e-10 -2.16098e-10 2.22167 -0.733487 -0.20892 -3.33791e-15 2.6498e-14 -2.55434e-14 -73.1772 17.0889 2.05716 11.2548 -4.93892 -20.178 0.0406121 5.73532 -0.808785 3.61919e-10 3.32478e-10 -3.83751e-10 6.22539e-10 5.75379e-10 -6.66851e-10 3.61916e-10 3.32479e-10 -3.83745e-10 -7.73091 5.47488 -0.417314 3.61922e-10 3.32479e-10 -3.83752e-10 -2.90554 0.965183 -0.102902 3.61914e-10 3.32479e-10 -3.83748e-10 -10.2786 0.731801 -0.0259123 3.61922e-10 3.3248e-10 -3.83755e-10 -2.22167 -0.733487 0.20892 -2.03217e-16 0.0 -3.88251e-19 -4.41746 -21.9343 13.9792 0.0168975 13.471 0.480483 -6.33926 -19.648 -18.5815 2.03217e-16 0.0 3.88251e-19 4.06245 -39.1803 -11.5807 0.0484629 13.7674 -0.408999 -0.410276 1.58101 1.60524
83.8053 82.4881 113.023 177.514 -3.5097 -154.645 -10.1953 -23.7372 -1.22865 4.32035 15.1098 -0.509137 -2.5724 14.1971 2.3823 10.0713 0.0346258 0.516254 -0.0 0.0 0.0 -0.0 0.0 0.0 -3.43928e-14 -9.54314e-14 -5.86415e-14 80.6863 12.7739 -5.07625 -18.5933 -11.3391 35.3652 -0.0465041 -6.1428 -0.86667 1.79847e-09 -2.11083e-09 7.83657e-11 3.1119e-09 -3.65307e-09 1.41464e-10 1.79847e-09 -2.11083e-09 7.83561e-11 7.73091 5.47488 0.417314 1.79846e-09 -2.11083e-09 7.83561e-11 2.90554 0.965183 0.102902 1.79847e-09 -2.11083e-09 7.83625e-11 10.2786 0.731801 0.0259123 1.79846e-09 -2.11083e-09 7.83689e-11 2.22167 -0.733487 -0.20892 -3.47866e-14 -9.54042e-14 -5.89894e-14 -72.9545 17.4111 1.82795 11.4689 -5.08306 -20.5866 0.0374561 5.51552 -0.777584 1.60174e-09 2.27597e-10 -1.05035e-09 2.76133e-09 3.95804e-10 -1.82599e-09 1.60174e-09 2.27599e-10 -1.05034e-09 -7.73091 5.47488 -0.417314 1.60174e-09 2.27601e-10 -1.05035e-09 -2.90554 0.965183 -0.102902 1.60174e-09 2.27601e-10 -1.05034e-09 -10.2786 0.731801 -0.0259123 1.60174e-09 2.27601e-10 -1.05035e-09 -2.22167 -0.733487 0.20892 -2.03217e-16 0.0 -3.88251e-19 -4.86416 -22.1809 14.0037 0.0179231 13.9266 0.494635 -6.36435 -19.665 -18.5489 2.03217e-16 0.0 3.88251e-19 3.52879 -39.2039 -11.5921 0.0496857 13.9243 -0.402947 -0.407856 1.37407 1.57533
83.4942 82.4928 112.806 177.547 -3.3914 -154.802 -10.2899 -23.3301 -1.11617 4.26825 15.1059 -0.468173 -2.66004 14.3173 2.28628 10.3454 -0.191753 0.358482 -0.0 0.0 0.0 -0.0 0.0 0.0 -5.58793e-14 -1.46194e-13 -9.38124e-14 80.7641 12.8314 -5.25922 -18.6517 -11.4048 35.4993 -0.0492554 -6.33221 -0.89359 2.36958e-09 -2.66729e-09 1.58836e-10 4.09908e-09 -4.61507e-09 2.8349e-10 2.36958e-09 -2.66729e-09 1.58825e-10 7.73091 5.47488 0.417314 2.36958e-09 -2.66729e-09 1.58829e-10 2.90554 0.965183 0.102902 2.36959e-09 -2.66729e-09 1.58834e-10 10.2786 0.731801 0.0259123 2.36957e-09 -2.66729e-09 1.5884e-10 2.22167 -0.733487 -0.20892 -5.62484e-14 -1.4617e-13 -9.41552e-14 -72.7307 17.8588 1.57589 11.702 -5.24243 -21.0335 0.0337498 5.24514 -0.739232 2.25082e-09 3.74605e-10 -1.29617e-09 3.88211e-09 6.5102e-10 -2.2541e-09 2.25081e-09 3.74608e-10 -1.29616e-09 -7.73091 5.47488 -0.417314 2.25082e-09 3.74609e-10 -1.29617e-09 -2.90554 0.965183 -0.102902 2.25081e-09 3.74609e-10 -1.29617e-09 -10.2786 0.731801 -0.0259123 2.25082e-09 3.74611e-10 -1.29617e-09 -2.22167 -0.733487 0.20892 -2.03217e-16 0.0 -3.88251e-19 -5.16343 -21.9454 14.0343 0.0194623 14.3108 0.50702 -6.40231 -19.6606 -18.5746 2.03217e-16 0.0 3.88251e-19 3.05611 -38.7558 -11.7922 0.0496602 13.9404 -0.395514 -0.404647 1.22115 1.57086
83.1557 82.5196 112.524 177.678 -3.243 -155.21 -10.2233 -22.6985 -0.933194 4.17572 15.108 -0.408988 -2.77991 14.4786 2.1401 10.6886 -0.46252 0.10607 -0.0 0.0 0.0 -0.0 0.0 0.0 -7.42151e-14 -1.64006e-13 -1.33894e-13 80.8369 12.891 -5.47143 -18.7076 -11.468 35.6278 -0.0537147 -6.61583 -0.933958 2.70958e-09 -2.94156e-09 1.32425e-10 4.68669e-09 -5.08946e-09 2.39847e-10 2.70958e-09 -2.94156e-09 1.32413e-10 7.73091 5.47488 0.417314 2.70957e-09 -2.94156e-09 1.32423e-10 2.90554 0.965183 0.102902 2.70958e-09 -2.94156e-09 1.32425e-10 10.2786 0.731801 0.0259123 2.70957e-09 -2.94156e-09 1.3243e-10 2.22167 -0.733487 -0.20892 -7.45056e-14 -1.6399e-13 -1.34208e-13 -72.5058 18.3986 1.30902 11.9582 -5.41929 -21.5295 0.0297909 4.92851 -0.694376 2.63315e-09 6.68122e-10 -1.33185e-09 4.54344e-09 1.15925e-09 -2.31717e-09 2.63314e-09 6.68126e-10 -1.33184e-09 -7.73091 5.47488 -0.417314 2.63315e-09 6.68125e-10 -1.33185e-09 -2.90554 0.965183 -0.102902 2.63314e-09 6.68126e-10 -1.33184e-09 -10.2786 0.731801 -0.0259123 2.63315e-09 6.68129e-10 -1.33185e-09 -2.22167 -0.733487 0.20892 -2.03217e-16 0.0 -3.88251e-19 -5.37325 -21.4133 14.0517 0.0214082 14.6669 0.51861 -6.43975 -19.6527 -18.6041 2.03217e-16 0.0 3.88251e-19 2.63042 -37.9928 -12.1275 0.0487854 13.8569 -0.386686 -0.399423 1.1023 1.61357
82.8113 82.626 112.112 178.067 -3.4461 -156.169 -10.1139 -22.0538 -0.757459 4.05972 15.102 -0.350543 -2.89597 14.636 1.98031 11.0145 -0.71293 -0.178144 -0.0 0.0 0.0 -0.0 0.0 0.0 -8.40045e-14 -1.64224e-13 -1.64191e-13 80.8896 12.958 -5.66978 -18.7471 -11.513 35.7188 -0.0583915 -6.88856 -0.972842 2.79801e-09 -2.99218e-09 6.6044e-11 4.83944e-09 -5.17719e-09 1.26021e-10 2.79802e-09 -2.99218e-09 6.60316e-11 7.73091 5.47488 0.417314 2.79801e-09 -2.99218e-09 6.60474e-11 2.90554 0.965183 0.102902 2.79802e-09 -2.99218e-09 6.60466e-11 10.2786 0.731801 0.0259123 2.79801e-09 -2.99218e-09 6.60518e-11 2.22167 -0.733487 -0.20892 -8.42008e-14 -1.64218e-13 -1.64468e-13 -72.2919 18.9382 1.05197 12.2344 -5.61359 -22.0661 0.0258533 4.58622 -0.64594 2.74195e-09 9.12557e-10 -1.28017e-09 4.73263e-09 1.58221e-09 -2.22778e-09 2.74195e-09 9.12561e-10 -1.28016e-09 -7.73091 5.47488 -0.417314 2.74195e-09 9.12559e-10 -1.28017e-09 -2.90554 0.965183 -0.102902 2.74194e-09 9.12561e-10 -1.28017e-09 -10.2786 0.731801 -0.0259123 2.74195e-09 9.12564e-10 -1.28017e-09 -2.22167 -0.733487 0.20892 -2.03217e-16 0.0 -3.88251e-19 -5.59237 -20.8724 13.9717 0.0230247 15.0161 0.529152 -6.43761 -19.6103 -18.5595 2.03217e-16 0.0 3.88251e-19 2.21196 -37.2221 -12.4636 0.0477794 13.7584 -0.377185 -0.394888 0.998374 1.63978
